<svg version="1.1" id="Layer_1" xmlns="http://www.w3.org/2000/svg" xmlns:xlink="http://www.w3.org/1999/xlink" x="0px" y="0px"
	 width="100%" viewBox="0 0 1024 560" enable-background="new 0 0 1024 560" xml:space="preserve">
<path fill="#000000" opacity="1.000000" stroke="none" 
	d="
M676.680176,300.020355 
	C676.544067,290.692108 677.917358,281.970184 678.211426,273.050690 
	C675.548828,280.591003 672.944702,288.152649 670.209412,295.666504 
	C666.393372,306.149200 662.368774,316.557434 658.673462,327.081787 
	C657.542358,330.302856 655.806519,331.486420 652.445007,331.378326 
	C642.257935,331.050873 643.621277,332.756439 640.115295,322.985077 
	C634.382019,307.005798 628.614624,291.038696 622.856873,275.068176 
	C622.650146,274.494781 622.797424,273.677124 621.600830,273.515625 
	C624.497498,293.709686 623.950195,313.972778 624.157593,334.218353 
	C624.208069,339.143951 622.501709,340.767059 617.780579,340.377655 
	C613.973999,340.063660 610.118347,340.217743 606.289734,340.335358 
	C603.105896,340.433136 601.718628,339.040619 601.759277,335.886047 
	C601.821533,331.055054 601.747192,326.222412 601.746704,321.390472 
	C601.743896,295.230865 601.831970,269.070740 601.666443,242.912186 
	C601.636902,238.243912 602.953796,236.207138 607.883179,236.533478 
	C613.025513,236.873932 618.221741,236.820755 623.369324,236.515762 
	C626.945862,236.303864 628.693054,237.463806 629.903870,240.941360 
	C636.251709,259.172668 643.612427,277.046570 649.173706,295.558105 
	C649.453247,296.488586 649.822693,297.391998 650.206848,298.465881 
	C651.945679,297.301544 652.146912,295.575012 652.594910,294.095032 
	C657.952087,276.395905 664.764526,259.199646 670.599426,241.669128 
	C671.864075,237.869705 673.774048,236.320221 677.795776,236.519775 
	C683.446594,236.800186 689.125244,236.683945 694.786255,236.527771 
	C697.769653,236.445450 699.036316,237.568832 699.032776,240.566696 
	C698.994873,272.391022 698.996338,304.215424 699.017883,336.039795 
	C699.020081,339.247009 697.523254,340.464905 694.384216,340.356018 
	C690.057007,340.205933 685.711182,340.122131 681.391907,340.354614 
	C677.706482,340.553009 676.486572,339.319763 676.569946,335.504639 
	C676.824707,323.846649 676.671692,312.179718 676.680176,300.020355 
z"/>
<path fill="#000000" opacity="1.000000" stroke="none" 
	d="
M483.308289,236.576630 
	C493.980927,236.679443 493.980927,236.679443 494.636169,246.486252 
	C495.356628,257.269348 495.356628,257.262421 484.704926,257.246552 
	C476.712006,257.234619 468.719116,257.233948 460.726196,257.246033 
	C453.961792,257.256287 453.961853,257.267548 453.930603,263.793091 
	C453.921051,265.791229 453.914886,267.789398 453.901093,269.787506 
	C453.853973,276.626709 453.852936,276.637451 460.949432,276.647949 
	C468.609314,276.659271 476.272308,276.776276 483.927673,276.589661 
	C487.514709,276.502197 488.938171,277.673889 489.042725,281.412262 
	C489.486786,297.286255 489.580414,297.283264 473.878571,297.290436 
	C468.716492,297.292786 463.551575,297.402313 458.393372,297.262817 
	C455.201447,297.176544 453.829773,298.439850 453.899628,301.650360 
	C453.997375,306.143616 454.115875,310.658112 453.790955,315.131989 
	C453.534149,318.668579 454.705872,319.806976 458.233032,319.752228 
	C469.220551,319.581665 480.215393,319.843201 491.201294,319.627563 
	C495.352356,319.546112 496.896484,320.847046 496.448853,325.076263 
	C496.065247,328.700592 496.259949,332.396851 496.352417,336.057373 
	C496.424622,338.915405 495.429810,340.343140 492.338104,340.332428 
	C472.689178,340.264526 453.039703,340.250458 433.390839,340.327148 
	C430.044769,340.340210 429.055176,338.760468 429.059326,335.741791 
	C429.102264,304.436462 429.104736,273.131042 429.110291,241.825638 
	C429.110840,238.587463 429.950073,236.538086 433.918701,236.569672 
	C450.227478,236.699463 466.538147,236.590256 483.308289,236.576630 
z"/>
<path fill="#000000" opacity="1.000000" stroke="none" 
	d="
M580.339111,256.369080 
	C569.225342,257.949677 558.404724,256.987122 547.603210,257.217010 
	C540.124817,257.376160 540.122437,257.266144 540.121826,264.513062 
	C540.120850,276.671234 540.120911,276.671204 552.238647,276.657532 
	C558.402527,276.650574 564.568420,276.735077 570.729431,276.599365 
	C573.933472,276.528778 575.288208,277.820892 575.196228,281.016449 
	C575.081177,285.011292 575.090271,289.014038 575.194885,293.009491 
	C575.280579,296.279785 573.725525,297.369171 570.609192,297.329346 
	C562.281006,297.222809 553.942200,297.520233 545.624146,297.211334 
	C541.104065,297.043457 539.702698,298.743927 540.041687,303.018951 
	C540.330566,306.661133 540.318726,310.360260 540.048279,314.005127 
	C539.730774,318.284424 541.181519,319.904175 545.678589,319.782990 
	C556.332703,319.495941 567.003052,319.848328 577.660278,319.625153 
	C581.977966,319.534698 583.239990,321.208923 582.836792,325.267059 
	C582.476013,328.897949 582.480469,332.583649 582.590759,336.237122 
	C582.682007,339.256348 581.480591,340.377228 578.486572,340.364441 
	C558.995544,340.281250 539.504089,340.259979 520.013062,340.323273 
	C516.788086,340.333771 515.603760,339.060516 515.610168,335.882599 
	C515.673950,304.230255 515.683044,272.577667 515.625183,240.925339 
	C515.619141,237.628693 517.047119,236.588943 520.147949,236.598587 
	C539.139099,236.657700 558.130920,236.667618 577.121704,236.559402 
	C580.173279,236.542023 581.407288,237.624847 581.210449,240.623138 
	C580.873596,245.754196 581.845215,250.932755 580.339111,256.369080 
z"/>
<path fill="#000000" opacity="1.000000" stroke="none" 
	d="
M720.920044,256.338287 
	C728.049927,240.494980 744.612427,232.163513 762.378296,234.954269 
	C771.118530,236.327209 778.978882,239.497009 786.113037,244.772598 
	C789.477478,247.260605 790.668213,249.492661 787.227417,252.677277 
	C786.985535,252.901184 786.811768,253.197449 786.597168,253.452301 
	C783.922485,256.628235 781.826660,261.007538 778.413391,262.652313 
	C774.703491,264.440033 771.610107,259.576996 767.960205,258.178345 
	C762.801636,256.201630 757.557312,255.715851 752.244812,256.492371 
	C748.462341,257.045227 745.188477,258.963837 744.407349,263.161774 
	C743.599854,267.501343 746.170593,270.164764 749.762024,271.753265 
	C757.373474,275.119843 765.080139,278.271515 772.756409,281.490723 
	C787.106445,287.508667 794.006287,297.577728 793.197510,311.354248 
	C792.414917,324.685394 782.861084,336.257263 769.101196,340.085144 
	C751.039490,345.109863 734.541870,341.445312 719.372559,330.721405 
	C715.723328,328.141541 715.035156,325.772797 718.493652,322.381042 
	C721.215149,319.712158 723.576843,316.636719 725.841980,313.553528 
	C728.034851,310.568939 729.976807,310.631958 732.848816,312.806549 
	C739.503235,317.845001 746.968201,320.983765 755.513000,320.706604 
	C757.487427,320.642517 759.488159,320.280579 761.404663,319.779572 
	C764.908081,318.863647 767.254517,316.709412 767.821411,312.958832 
	C768.395081,309.164032 766.786865,306.272614 763.532227,304.691589 
	C757.396973,301.711121 751.085754,299.093475 744.851807,296.315765 
	C742.266235,295.163696 739.649353,294.071869 737.118530,292.808716 
	C722.303223,285.414093 716.617188,272.801514 720.920044,256.338287 
z"/>
<path fill="#000000" opacity="1.000000" stroke="none" 
	d="
M322.174530,323.872620 
	C325.083435,328.960205 327.961060,333.654633 330.478058,338.535034 
	C334.031952,345.426025 332.179565,350.465790 325.078613,354.096893 
	C317.483551,357.980652 312.342163,356.694794 308.690308,349.835083 
	C302.899658,338.957794 296.900665,328.175201 291.591248,317.065155 
	C289.095123,311.842010 286.236450,309.679749 280.221405,310.202087 
	C258.942596,312.049957 241.708130,297.545502 235.940079,281.717651 
	C229.662277,264.491028 232.571411,248.705826 244.901566,235.305939 
	C257.258301,221.877167 272.946930,217.607086 290.451813,222.685745 
	C308.031586,227.786163 318.730255,240.039886 321.978546,257.939148 
	C324.548126,272.098511 320.949036,285.122284 310.952332,295.814331 
	C308.454987,298.485382 308.647186,300.393616 310.312561,303.180237 
	C314.328003,309.899292 318.107574,316.759277 322.174530,323.872620 
M290.114319,293.703217 
	C305.909485,286.171051 313.242279,269.918823 307.816498,254.468597 
	C302.437286,239.150970 286.343414,230.160477 270.797028,233.788574 
	C253.298904,237.872131 242.308289,255.989655 247.147415,272.773895 
	C252.485077,291.287262 270.768982,300.479706 290.114319,293.703217 
z"/>
<path fill="#000000" opacity="1.000000" stroke="none" 
	d="
M363.000061,236.587341 
	C378.816681,236.579086 394.134521,236.673187 409.449005,236.489227 
	C413.093231,236.445465 414.664307,237.446518 414.423157,241.240402 
	C414.191284,244.888214 414.177795,248.576538 414.432800,252.221573 
	C414.715912,256.267456 412.929535,257.458191 409.141327,257.319611 
	C403.321991,257.106659 397.481354,257.444000 391.664948,257.194092 
	C387.492645,257.014801 386.181122,258.653259 386.204620,262.733002 
	C386.340637,286.373352 386.279144,310.014862 386.269165,333.655975 
	C386.266357,340.306580 386.242737,340.308044 379.632538,340.311371 
	C375.636841,340.313385 371.620117,340.052124 367.650940,340.376251 
	C362.973969,340.758118 361.621094,338.836670 361.651215,334.338837 
	C361.808350,310.865265 361.721649,287.390045 361.713623,263.915405 
	C361.711334,257.273743 361.701813,257.268768 355.170380,257.254364 
	C349.676331,257.242249 344.179077,257.128937 338.689362,257.280334 
	C335.219391,257.376038 333.639526,256.353668 333.550079,252.502548 
	C333.181000,236.616653 333.068726,236.618591 349.014557,236.597717 
	C353.509735,236.591843 358.004883,236.591064 363.000061,236.587341 
z"/>
<path fill="#000000" opacity="1.000000" stroke="none" 
	d="
M245.005798,340.310272 
	C230.998383,340.131927 232.953247,342.059204 232.850235,328.681488 
	C232.759125,316.852356 232.784546,305.022003 232.825790,293.192444 
	C232.832535,291.257568 232.375290,289.224213 233.482040,287.307922 
	C235.646835,287.411743 235.983917,289.341614 236.753967,290.639587 
	C240.940369,297.696075 246.570190,303.301575 253.824203,307.048492 
	C257.142700,308.762543 258.286255,310.978760 258.177032,314.568420 
	C257.974335,321.226776 257.960449,327.901672 258.191498,334.558441 
	C258.338165,338.784821 257.002228,340.852570 252.493149,340.361176 
	C250.187622,340.109863 247.832611,340.312500 245.005798,340.310272 
z"/>
<path fill="#000000" opacity="1.000000" stroke="none" 
	d="
M303.869263,253.461792 
	C312.626648,274.606323 294.650940,296.719757 272.725800,292.510223 
	C259.955414,290.058380 250.156815,279.176849 249.668274,267.118591 
	C249.059708,252.098190 256.807434,241.070328 270.714355,237.162231 
	C283.010681,233.706772 296.416565,239.617065 302.815247,251.320099 
	C303.134094,251.903244 303.408661,252.510574 303.869263,253.461792 
z"/>
</svg>